<?xml version="1.0" encoding="UTF-8" standalone="no"?>
<!DOCTYPE svg PUBLIC "-//W3C//DTD SVG 1.1//EN"
 "http://www.w3.org/Graphics/SVG/1.1/DTD/svg11.dtd">
<!-- Generated by graphviz version 2.38.0 (20140413.2041)
 -->
<!-- Title: %3 Pages: 1 -->
<svg width="400pt" height="479pt"
 viewBox="0.00 0.00 400.00 479.00" xmlns="http://www.w3.org/2000/svg" xmlns:xlink="http://www.w3.org/1999/xlink">
<g id="graph0" class="graph" transform="scale(1 1) rotate(0) translate(4 475)">
<title>%3</title>
<polygon fill="#333333" stroke="none" points="-4,4 -4,-475 396,-475 396,4 -4,4"/>
<text text-anchor="middle" x="196" y="-9.2" font-family="Times,serif" font-size="16.00" fill="white">Network Map</text>
<!-- R2 -->
<g id="node1" class="node"><title>R2</title>
<polygon fill="#006699" stroke="#006699" points="96.5,-347 19.5,-347 19.5,-274 96.5,-274 96.5,-347"/>
<text text-anchor="middle" x="58" y="-306.8" font-family="Helvetica,sans-Serif" font-size="14.00" fill="white">R2</text>
</g>
<!-- SW2 -->
<g id="node2" class="node"><title>SW2</title>
<polygon fill="#006699" stroke="#006699" points="104,-471 12,-471 12,-398 104,-398 104,-471"/>
<text text-anchor="middle" x="58" y="-430.8" font-family="Helvetica,sans-Serif" font-size="14.00" fill="white">SW2</text>
</g>
<!-- R2&#45;&#45;SW2 -->
<g id="edge5" class="edge"><title>R2&#45;&#45;SW2</title>
<path fill="none" stroke="green" stroke-dasharray="5,2" d="M58,-347.115C58,-363.01 58,-381.704 58,-397.629"/>
<text text-anchor="middle" x="108" y="-368.8" font-family="Courier,monospace" font-size="14.00" fill="white"> &#160;&#160;&#160;&#160;&#160;&#160;&#160;&#160;&#160;&#160;&#160;</text>
<text text-anchor="middle" x="29" y="-386.429" font-family="Courier,monospace" font-size="14.00" fill="white">Eth0/11</text>
<text text-anchor="middle" x="33" y="-350.915" font-family="Courier,monospace" font-size="14.00" fill="white">Eth0/1</text>
</g>
<!-- R3 -->
<g id="node3" class="node"><title>R3</title>
<polygon fill="#006699" stroke="#006699" points="219.5,-99 142.5,-99 142.5,-26 219.5,-26 219.5,-99"/>
<text text-anchor="middle" x="181" y="-58.8" font-family="Helvetica,sans-Serif" font-size="14.00" fill="white">R3</text>
</g>
<!-- R4 -->
<g id="node5" class="node"><title>R4</title>
<polygon fill="#006699" stroke="#006699" points="96.5,-223 19.5,-223 19.5,-150 96.5,-150 96.5,-223"/>
<text text-anchor="middle" x="58" y="-182.8" font-family="Helvetica,sans-Serif" font-size="14.00" fill="white">R4</text>
</g>
<!-- R3&#45;&#45;R4 -->
<g id="edge4" class="edge"><title>R3&#45;&#45;R4</title>
<path fill="none" stroke="green" stroke-dasharray="5,2" d="M142.327,-74.7446C120.22,-83.0509 93.6616,-96.5272 77,-117 69.4436,-126.285 64.8857,-138.368 62.1389,-149.796"/>
<text text-anchor="middle" x="127" y="-120.8" font-family="Courier,monospace" font-size="14.00" fill="white"> &#160;&#160;&#160;&#160;&#160;&#160;&#160;&#160;&#160;&#160;&#160;</text>
<text text-anchor="middle" x="37.1389" y="-138.596" font-family="Courier,monospace" font-size="14.00" fill="white">Eth0/0</text>
<text text-anchor="middle" x="117.327" y="-63.5446" font-family="Courier,monospace" font-size="14.00" fill="white">Eth0/1</text>
</g>
<!-- SW1 -->
<g id="node7" class="node"><title>SW1</title>
<polygon fill="#006699" stroke="#006699" points="227,-223 135,-223 135,-150 227,-150 227,-223"/>
<text text-anchor="middle" x="181" y="-182.8" font-family="Helvetica,sans-Serif" font-size="14.00" fill="white">SW1</text>
</g>
<!-- R3&#45;&#45;SW1 -->
<g id="edge2" class="edge"><title>R3&#45;&#45;SW1</title>
<path fill="none" stroke="green" stroke-dasharray="5,2" d="M181,-99.1154C181,-115.01 181,-133.704 181,-149.629"/>
<text text-anchor="middle" x="231" y="-120.8" font-family="Courier,monospace" font-size="14.00" fill="white"> &#160;&#160;&#160;&#160;&#160;&#160;&#160;&#160;&#160;&#160;&#160;</text>
<text text-anchor="middle" x="156" y="-138.429" font-family="Courier,monospace" font-size="14.00" fill="white">Eth0/3</text>
<text text-anchor="middle" x="156" y="-102.915" font-family="Courier,monospace" font-size="14.00" fill="white">Eth0/0</text>
</g>
<!-- R5 -->
<g id="node8" class="node"><title>R5</title>
<polygon fill="#006699" stroke="#006699" points="342.5,-223 265.5,-223 265.5,-150 342.5,-150 342.5,-223"/>
<text text-anchor="middle" x="304" y="-182.8" font-family="Helvetica,sans-Serif" font-size="14.00" fill="white">R5</text>
</g>
<!-- R3&#45;&#45;R5 -->
<g id="edge7" class="edge"><title>R3&#45;&#45;R5</title>
<path fill="none" stroke="green" stroke-dasharray="5,2" d="M219.766,-75.8466C240.836,-84.3628 265.819,-97.6806 282,-117 289.779,-126.288 294.822,-138.373 298.085,-149.8"/>
<text text-anchor="middle" x="342" y="-120.8" font-family="Courier,monospace" font-size="14.00" fill="white"> &#160;&#160;&#160;&#160;&#160;&#160;&#160;&#160;&#160;&#160;&#160;</text>
<text text-anchor="middle" x="273.085" y="-138.6" font-family="Courier,monospace" font-size="14.00" fill="white">Eth0/0</text>
<text text-anchor="middle" x="244.766" y="-64.6466" font-family="Courier,monospace" font-size="14.00" fill="white">Eth0/2</text>
</g>
<!-- R1 -->
<g id="node4" class="node"><title>R1</title>
<polygon fill="#006699" stroke="#006699" points="219.5,-347 142.5,-347 142.5,-274 219.5,-274 219.5,-347"/>
<text text-anchor="middle" x="181" y="-306.8" font-family="Helvetica,sans-Serif" font-size="14.00" fill="white">R1</text>
</g>
<!-- R6 -->
<g id="node6" class="node"><title>R6</title>
<polygon fill="#006699" stroke="#006699" points="342.5,-347 265.5,-347 265.5,-274 342.5,-274 342.5,-347"/>
<text text-anchor="middle" x="304" y="-306.8" font-family="Helvetica,sans-Serif" font-size="14.00" fill="white">R6</text>
</g>
<!-- SW1&#45;&#45;R2 -->
<g id="edge3" class="edge"><title>SW1&#45;&#45;R2</title>
<path fill="none" stroke="green" stroke-dasharray="5,2" d="M134.997,-209.057C109.166,-221.528 81.2615,-235.764 77,-241 69.4436,-250.285 64.8857,-262.368 62.1389,-273.796"/>
<text text-anchor="middle" x="127" y="-244.8" font-family="Courier,monospace" font-size="14.00" fill="white"> &#160;&#160;&#160;&#160;&#160;&#160;&#160;&#160;&#160;&#160;&#160;</text>
<text text-anchor="middle" x="37.1389" y="-262.596" font-family="Courier,monospace" font-size="14.00" fill="white">Eth0/0</text>
<text text-anchor="middle" x="109.997" y="-212.857" font-family="Courier,monospace" font-size="14.00" fill="white">Eth0/2</text>
</g>
<!-- SW1&#45;&#45;R1 -->
<g id="edge6" class="edge"><title>SW1&#45;&#45;R1</title>
<path fill="none" stroke="green" stroke-dasharray="5,2" d="M181,-223.115C181,-239.01 181,-257.704 181,-273.629"/>
<text text-anchor="middle" x="231" y="-244.8" font-family="Courier,monospace" font-size="14.00" fill="white"> &#160;&#160;&#160;&#160;&#160;&#160;&#160;&#160;&#160;&#160;&#160;</text>
<text text-anchor="middle" x="156" y="-262.429" font-family="Courier,monospace" font-size="14.00" fill="white">Eth0/0</text>
<text text-anchor="middle" x="206" y="-226.915" font-family="Courier,monospace" font-size="14.00" fill="white">Eth0/1</text>
</g>
<!-- SW1&#45;&#45;R6 -->
<g id="edge1" class="edge"><title>SW1&#45;&#45;R6</title>
<path fill="none" stroke="green" stroke-dasharray="5,2" d="M227.024,-209.888C251.679,-222.231 277.843,-236.037 282,-241 289.779,-250.288 294.822,-262.373 298.085,-273.8"/>
<text text-anchor="middle" x="342" y="-244.8" font-family="Courier,monospace" font-size="14.00" fill="white"> &#160;&#160;&#160;&#160;&#160;&#160;&#160;&#160;&#160;&#160;&#160;</text>
<text text-anchor="middle" x="273.085" y="-262.6" font-family="Courier,monospace" font-size="14.00" fill="white">Eth0/1</text>
<text text-anchor="middle" x="239.524" y="-213.688" font-family="Courier,monospace" font-size="14.00" fill="white">Eth0/5</text>
</g>
</g>
</svg>
